<svg width="30" height="30" viewBox="0 0 30 30" fill="none" xmlns="http://www.w3.org/2000/svg">
<g clip-path="url(#clip0_1119_10424)">
<path d="M29.8097 22.05C30.0585 22.2887 30.066 22.685 29.8272 22.9338C29.7047 23.0613 29.541 23.125 29.3772 23.125C29.221 23.125 29.0647 23.0675 28.9435 22.95L26.2522 20.3625V25.625C26.2522 28.0375 24.2897 30 21.8772 30H18.1272C17.7822 30 17.5022 29.72 17.5022 29.375C17.5022 29.03 17.7822 28.75 18.1272 28.75H21.8772C23.5997 28.75 25.0022 27.3475 25.0022 25.625V20.3625L22.311 22.95C22.0622 23.19 21.666 23.1813 21.4272 22.9325C21.1885 22.6838 21.196 22.2875 21.4447 22.0487L24.321 19.2838C25.0385 18.5675 26.2185 18.5675 26.9447 19.2913L29.8122 22.0487L29.8097 22.05ZM3.05973 10.705C3.42348 11.0688 3.90223 11.2513 4.37848 11.2513C4.85223 11.2513 5.32473 11.0712 5.68223 10.7137L8.55848 7.95125C8.80723 7.7125 8.81598 7.31625 8.57598 7.0675C8.33723 6.81875 7.94098 6.81 7.69223 7.05L4.99973 9.63625V4.375C4.99973 2.6525 6.40223 1.25 8.12473 1.25H11.8747C12.2197 1.25 12.4997 0.97 12.4997 0.625C12.4997 0.28 12.2197 0 11.8747 0H8.12473C5.71223 0 3.74973 1.9625 3.74973 4.375V9.63625L1.05848 7.05C0.809727 6.81125 0.414727 6.81875 0.174727 7.0675C-0.0640229 7.31625 -0.0565229 7.7125 0.192227 7.95125L3.05848 10.7062L3.05973 10.705ZM15.001 18.125V23.125C15.001 25.5375 13.0385 27.5 10.626 27.5H6.39973L3.08223 29.6737C1.83098 30.5638 -0.0490229 29.5525 0.000977137 28.02V18.125C0.000977137 15.7125 1.96348 13.75 4.37598 13.75H10.626C13.0385 13.75 15.001 15.7125 15.001 18.125ZM13.751 18.125C13.751 16.4025 12.3485 15 10.626 15H4.37598C2.65348 15 1.25098 16.4025 1.25098 18.125V28.02C1.22973 28.5888 1.93098 28.9638 2.39348 28.6313L5.87098 26.3525C5.97348 26.2863 6.09223 26.25 6.21348 26.25H10.626C12.3485 26.25 13.751 24.8475 13.751 23.125V18.125ZM30.001 4.375V14.27C30.0497 15.8063 28.1685 16.815 26.916 15.9213L23.6022 13.7513H19.376C16.9635 13.7513 15.001 11.7887 15.001 9.37625V4.375C15.001 1.9625 16.9635 0 19.376 0H25.626C28.0385 0 30.001 1.9625 30.001 4.375ZM28.751 4.375C28.751 2.6525 27.3485 1.25 25.626 1.25H19.376C17.6535 1.25 16.251 2.6525 16.251 4.375V9.375C16.251 11.0975 17.6535 12.5 19.376 12.5H23.7885C23.9097 12.5 24.0285 12.535 24.131 12.6025L27.6047 14.8775C28.0685 15.215 28.771 14.84 28.751 14.27V4.375Z" fill="#91CE0F"/>
</g>
<defs>
<clipPath id="clip0_1119_10424">
<rect width="30" height="30" fill="white"/>
</clipPath>
</defs>
</svg>
