<svg width="30" height="30" viewBox="0 0 30 30" fill="none" xmlns="http://www.w3.org/2000/svg">
<g clip-path="url(#clip0_1068_4984)">
<path d="M29.8097 22.0506C30.0585 22.2894 30.066 22.6856 29.8272 22.9344C29.7047 23.0619 29.541 23.1256 29.3772 23.1256C29.221 23.1256 29.0647 23.0681 28.9435 22.9506L26.2522 20.3631V25.6256C26.2522 28.0381 24.2897 30.0006 21.8772 30.0006H18.1272C17.7822 30.0006 17.5022 29.7206 17.5022 29.3756C17.5022 29.0306 17.7822 28.7506 18.1272 28.7506H21.8772C23.5997 28.7506 25.0022 27.3481 25.0022 25.6256V20.3631L22.311 22.9506C22.0622 23.1906 21.666 23.1819 21.4272 22.9331C21.1885 22.6844 21.196 22.2881 21.4447 22.0494L24.321 19.2844C25.0385 18.5681 26.2185 18.5681 26.9447 19.2919L29.8122 22.0494L29.8097 22.0506ZM3.05973 10.7056C3.42348 11.0694 3.90223 11.2519 4.37848 11.2519C4.85223 11.2519 5.32473 11.0719 5.68223 10.7144L8.55848 7.95186C8.80723 7.71311 8.81598 7.31686 8.57598 7.06811C8.33723 6.81936 7.94098 6.81061 7.69223 7.05061L4.99973 9.63686V4.37561C4.99973 2.65311 6.40223 1.25061 8.12473 1.25061H11.8747C12.2197 1.25061 12.4997 0.97061 12.4997 0.62561C12.4997 0.28061 12.2197 0.000610352 11.8747 0.000610352H8.12473C5.71223 0.000610352 3.74973 1.96311 3.74973 4.37561V9.63686L1.05848 7.05061C0.809727 6.81186 0.414727 6.81936 0.174727 7.06811C-0.0640229 7.31686 -0.0565229 7.71311 0.192227 7.95186L3.05848 10.7069L3.05973 10.7056ZM15.001 18.1256V23.1256C15.001 25.5381 13.0385 27.5006 10.626 27.5006H6.39973L3.08223 29.6744C1.83098 30.5644 -0.0490229 29.5531 0.000977137 28.0206V18.1256C0.000977137 15.7131 1.96348 13.7506 4.37598 13.7506H10.626C13.0385 13.7506 15.001 15.7131 15.001 18.1256ZM13.751 18.1256C13.751 16.4031 12.3485 15.0006 10.626 15.0006H4.37598C2.65348 15.0006 1.25098 16.4031 1.25098 18.1256V28.0206C1.22973 28.5894 1.93098 28.9644 2.39348 28.6319L5.87098 26.3531C5.97348 26.2869 6.09223 26.2506 6.21348 26.2506H10.626C12.3485 26.2506 13.751 24.8481 13.751 23.1256V18.1256ZM30.001 4.37561V14.2706C30.0497 15.8069 28.1685 16.8156 26.916 15.9219L23.6022 13.7519H19.376C16.9635 13.7519 15.001 11.7894 15.001 9.37686V4.37561C15.001 1.96311 16.9635 0.000610352 19.376 0.000610352H25.626C28.0385 0.000610352 30.001 1.96311 30.001 4.37561ZM28.751 4.37561C28.751 2.65311 27.3485 1.25061 25.626 1.25061H19.376C17.6535 1.25061 16.251 2.65311 16.251 4.37561V9.37561C16.251 11.0981 17.6535 12.5006 19.376 12.5006H23.7885C23.9097 12.5006 24.0285 12.5356 24.131 12.6031L27.6047 14.8781C28.0685 15.2156 28.771 14.8406 28.751 14.2706V4.37561Z" fill="#18181B"/>
</g>
<defs>
<clipPath id="clip0_1068_4984">
<rect width="30" height="30" fill="white" transform="translate(0 0.000610352)"/>
</clipPath>
</defs>
</svg>
