<svg width="40" height="40" viewBox="0 0 40 40" fill="none" xmlns="http://www.w3.org/2000/svg">
<path d="M9.16667 16.6667C11.4633 16.6667 13.3333 14.7967 13.3333 12.5C13.3333 10.2033 11.4633 8.33333 9.16667 8.33333C6.87 8.33333 5 10.2033 5 12.5C5 14.7967 6.87 16.6667 9.16667 16.6667ZM9.16667 10C10.545 10 11.6667 11.1217 11.6667 12.5C11.6667 13.8783 10.545 15 9.16667 15C7.78833 15 6.66667 13.8783 6.66667 12.5C6.66667 11.1217 7.78833 10 9.16667 10ZM15 12.5C15 14.7967 16.87 16.6667 19.1667 16.6667C21.4633 16.6667 23.3333 14.7967 23.3333 12.5C23.3333 10.2033 21.4633 8.33333 19.1667 8.33333C16.87 8.33333 15 10.2033 15 12.5ZM19.1667 10C20.545 10 21.6667 11.1217 21.6667 12.5C21.6667 13.8783 20.545 15 19.1667 15C17.7883 15 16.6667 13.8783 16.6667 12.5C16.6667 11.1217 17.7883 10 19.1667 10ZM14.1667 8.33333C16.4633 8.33333 18.3333 6.46333 18.3333 4.16667C18.3333 1.87 16.4633 0 14.1667 0C11.87 0 10 1.87 10 4.16667C10 6.46333 11.87 8.33333 14.1667 8.33333ZM14.1667 1.66667C15.545 1.66667 16.6667 2.78833 16.6667 4.16667C16.6667 5.545 15.545 6.66667 14.1667 6.66667C12.7883 6.66667 11.6667 5.545 11.6667 4.16667C11.6667 2.78833 12.7883 1.66667 14.1667 1.66667ZM38.635 16.0917C37.8067 15.3383 36.73 14.9683 35.62 15.005C34.5033 15.0583 33.4733 15.5417 32.7217 16.3683L26.5017 23.205C25.9783 21.3583 24.2767 20.0017 22.265 20.0017H5.83333C2.61667 20.0017 0 22.6183 0 25.835V34.1683C0 37.385 2.61667 40.0017 5.83333 40.0017H15.775C20.2867 40.0017 24.595 38.07 27.5967 34.7L38.94 21.9683C40.4567 20.265 40.3217 17.6283 38.635 16.0917ZM37.6967 20.86L26.3533 33.5917C23.6683 36.6067 19.8133 38.335 15.7767 38.335H5.83333C3.53667 38.335 1.66667 36.465 1.66667 34.1683V25.835C1.66667 23.5383 3.53667 21.6683 5.83333 21.6683H22.2633C23.7717 21.6683 25 22.8967 25 24.405C25 25.7583 23.99 26.9233 22.6683 27.1117L12.4 28.34C11.9433 28.395 11.6167 28.81 11.6717 29.2667C11.7267 29.7217 12.1267 30.0533 12.5983 29.995L22.885 28.7633C24.5867 28.52 25.96 27.3 26.4617 25.7233L33.9533 17.49C34.4067 16.9933 35.0267 16.7017 35.6983 16.67C36.3633 16.6483 37.015 16.87 37.5117 17.325C38.525 18.25 38.6083 19.835 37.695 20.8617L37.6967 20.86Z" fill="#91CE0F"/>
</svg>
