<svg width="40" height="40" viewBox="0 0 40 40" fill="none" xmlns="http://www.w3.org/2000/svg">
<g clip-path="url(#clip0_1119_10182)">
<path d="M20 33.3333C29.19 33.3333 36.6667 25.8567 36.6667 16.6667C36.6667 7.47667 29.19 0 20 0C10.81 0 3.33333 7.47667 3.33333 16.6667C3.33333 25.8567 10.81 33.3333 20 33.3333ZM20 1.66667C28.27 1.66667 35 8.395 35 16.6667C35 24.9383 28.27 31.6667 20 31.6667C11.73 31.6667 5 24.9383 5 16.6667C5 8.395 11.73 1.66667 20 1.66667ZM13.3333 12.71C13.3333 10.2967 15.2967 8.33333 17.71 8.33333H19.1667V5.83333C19.1667 5.37333 19.54 5 20 5C20.46 5 20.8333 5.37333 20.8333 5.83333V8.33333H22.3767C24.0083 8.33333 25.5283 9.21 26.345 10.625C26.5767 11.0217 26.44 11.5333 26.0417 11.7633C25.64 11.9933 25.1317 11.8583 24.9033 11.4583C24.3833 10.5583 23.4133 10 22.3767 10H17.71C16.2167 10 15 11.215 15 12.71C15 14.0483 15.9583 15.175 17.28 15.3833L22.985 16.3033C25.1183 16.6433 26.6667 18.4617 26.6667 20.6233C26.6667 23.0367 24.7033 25 22.29 25H20.8333V27.5C20.8333 27.96 20.46 28.3333 20 28.3333C19.54 28.3333 19.1667 27.96 19.1667 27.5V25H17.6233C15.9917 25 14.4717 24.1233 13.655 22.7083C13.4233 22.3117 13.56 21.8 13.9583 21.57C14.3567 21.3367 14.8667 21.475 15.0967 21.875C15.6167 22.775 16.5867 23.3333 17.6233 23.3333H22.29C23.7833 23.3333 25 22.1183 25 20.6233C25 19.285 24.0417 18.1583 22.72 17.95L17.015 17.03C14.8817 16.69 13.3333 14.8717 13.3333 12.71ZM40 35C40 37.7567 37.7567 40 35 40H5C2.24333 40 0 37.7567 0 35C0 32.2433 2.24333 30 5 30H5.83333C6.29333 30 6.66667 30.3733 6.66667 30.8333C6.66667 31.2933 6.29333 31.6667 5.83333 31.6667H5C3.16167 31.6667 1.66667 33.1617 1.66667 35C1.66667 36.8383 3.16167 38.3333 5 38.3333H35C36.8383 38.3333 38.3333 36.8383 38.3333 35C38.3333 33.1617 36.8383 31.6667 35 31.6667H34.1667C33.7067 31.6667 33.3333 31.2933 33.3333 30.8333C33.3333 30.3733 33.7067 30 34.1667 30H35C37.7567 30 40 32.2433 40 35Z" fill="#91CE0F"/>
</g>
<defs>
<clipPath id="clip0_1119_10182">
<rect width="40" height="40" fill="white"/>
</clipPath>
</defs>
</svg>
