<svg width="30" height="30" viewBox="0 0 30 30" fill="none" xmlns="http://www.w3.org/2000/svg">
<g clip-path="url(#clip0_1068_4996)">
<path d="M29.5075 22.7737C28.4213 21.2712 25.9862 18.7512 21.875 18.7512C17.7638 18.7512 15.3287 21.2712 14.2425 22.7737C13.55 23.7325 13.55 25.02 14.2425 25.9775C15.33 27.48 17.7675 30 21.875 30C25.9825 30 28.4213 27.48 29.5075 25.9775C30.2013 25.0187 30.2013 23.7312 29.5075 22.7737ZM28.4937 25.2462C27.3375 26.845 25.25 28.7512 21.8738 28.7512C18.4975 28.7512 16.4112 26.845 15.2537 25.2462C14.8775 24.7262 14.8775 24.0275 15.2537 23.5062C16.4112 21.9075 18.4988 20.0012 21.8738 20.0012C25.2488 20.0012 27.3375 21.9075 28.4937 23.5062C28.8713 24.0262 28.8713 24.7262 28.4937 25.2462ZM21.8738 21.8762C20.495 21.8762 19.3737 22.9975 19.3737 24.3762C19.3737 25.755 20.495 26.8762 21.8738 26.8762C23.2525 26.8762 24.3738 25.755 24.3738 24.3762C24.3738 22.9975 23.2525 21.8762 21.8738 21.8762ZM21.8738 25.6262C21.1838 25.6262 20.6238 25.065 20.6238 24.3762C20.6238 23.6875 21.1838 23.1262 21.8738 23.1262C22.5638 23.1262 23.1238 23.6875 23.1238 24.3762C23.1238 25.065 22.5638 25.6262 21.8738 25.6262ZM10.6237 23.7512H5.625C3.2125 23.7512 1.25 21.7887 1.25 19.3762V12.5012H28.75V18.1262C28.75 18.4712 29.03 18.7512 29.375 18.7512C29.72 18.7512 30 18.4712 30 18.1262V8.12622C30 5.02497 27.4762 2.50122 24.375 2.50122H5.625C2.52375 2.50122 0 5.02497 0 8.12622V19.3762C0 22.4775 2.52375 25.0012 5.625 25.0012H10.625C10.97 25.0012 11.25 24.7212 11.25 24.3762C11.25 24.0312 10.97 23.7512 10.625 23.7512H10.6237ZM1.25 11.2512V8.75122H28.75V11.2512H1.25ZM5.625 3.75122H24.375C26.5725 3.75122 28.38 5.38622 28.6862 7.50122H1.31375C1.62 5.38622 3.4275 3.75122 5.625 3.75122ZM3.75 18.7512C3.75 20.13 4.87125 21.2512 6.25 21.2512C7.62875 21.2512 8.75 20.13 8.75 18.7512C8.75 17.3725 7.62875 16.2512 6.25 16.2512C4.87125 16.2512 3.75 17.3725 3.75 18.7512ZM7.5 18.7512C7.5 19.44 6.93875 20.0012 6.25 20.0012C5.56125 20.0012 5 19.44 5 18.7512C5 18.0625 5.56125 17.5012 6.25 17.5012C6.93875 17.5012 7.5 18.0625 7.5 18.7512Z" fill="#18181B"/>
</g>
<defs>
<clipPath id="clip0_1068_4996">
<rect width="30" height="30" fill="white" transform="translate(0 0.0012207)"/>
</clipPath>
</defs>
</svg>
