<svg width="30" height="30" viewBox="0 0 30 30" fill="none" xmlns="http://www.w3.org/2000/svg">
<g clip-path="url(#clip0_1119_10433)">
<path d="M29.5075 22.7745C28.4213 21.272 25.9862 18.752 21.875 18.752C17.7638 18.752 15.3287 21.272 14.2425 22.7745C13.55 23.7332 13.55 25.0207 14.2425 25.9782C15.33 27.4807 17.7675 30.0007 21.875 30.0007C25.9825 30.0007 28.4213 27.4807 29.5075 25.9782C30.2013 25.0195 30.2013 23.732 29.5075 22.7745ZM28.4937 25.247C27.3375 26.8457 25.25 28.752 21.8738 28.752C18.4975 28.752 16.4112 26.8457 15.2537 25.247C14.8775 24.727 14.8775 24.0282 15.2537 23.507C16.4112 21.9082 18.4988 20.002 21.8738 20.002C25.2488 20.002 27.3375 21.9082 28.4937 23.507C28.8713 24.027 28.8713 24.727 28.4937 25.247ZM21.8738 21.877C20.495 21.877 19.3737 22.9982 19.3737 24.377C19.3737 25.7557 20.495 26.877 21.8738 26.877C23.2525 26.877 24.3738 25.7557 24.3738 24.377C24.3738 22.9982 23.2525 21.877 21.8738 21.877ZM21.8738 25.627C21.1838 25.627 20.6238 25.0657 20.6238 24.377C20.6238 23.6882 21.1838 23.127 21.8738 23.127C22.5638 23.127 23.1238 23.6882 23.1238 24.377C23.1238 25.0657 22.5638 25.627 21.8738 25.627ZM10.6237 23.752H5.625C3.2125 23.752 1.25 21.7895 1.25 19.377V12.502H28.75V18.127C28.75 18.472 29.03 18.752 29.375 18.752C29.72 18.752 30 18.472 30 18.127V8.12695C30 5.0257 27.4762 2.50195 24.375 2.50195H5.625C2.52375 2.50195 0 5.0257 0 8.12695V19.377C0 22.4782 2.52375 25.002 5.625 25.002H10.625C10.97 25.002 11.25 24.722 11.25 24.377C11.25 24.032 10.97 23.752 10.625 23.752H10.6237ZM1.25 11.252V8.75195H28.75V11.252H1.25ZM5.625 3.75195H24.375C26.5725 3.75195 28.38 5.38695 28.6862 7.50195H1.31375C1.62 5.38695 3.4275 3.75195 5.625 3.75195ZM3.75 18.752C3.75 20.1307 4.87125 21.252 6.25 21.252C7.62875 21.252 8.75 20.1307 8.75 18.752C8.75 17.3732 7.62875 16.252 6.25 16.252C4.87125 16.252 3.75 17.3732 3.75 18.752ZM7.5 18.752C7.5 19.4407 6.93875 20.002 6.25 20.002C5.56125 20.002 5 19.4407 5 18.752C5 18.0632 5.56125 17.502 6.25 17.502C6.93875 17.502 7.5 18.0632 7.5 18.752Z" fill="#91CE0F"/>
</g>
<defs>
<clipPath id="clip0_1119_10433">
<rect width="30" height="30" fill="white" transform="translate(0 0.00195312)"/>
</clipPath>
</defs>
</svg>
