<svg width="40" height="40" viewBox="0 0 40 40" fill="none" xmlns="http://www.w3.org/2000/svg">
<g clip-path="url(#clip0_1119_10188)">
<g clip-path="url(#clip1_1119_10188)">
<path d="M28.3333 0C21.7917 0 16.6667 2.92833 16.6667 6.66667V13.9633C15.1567 13.5633 13.4683 13.3333 11.6667 13.3333C5.125 13.3333 0 16.2617 0 20V33.3333C0 37.0717 5.125 40 11.6667 40C18.2083 40 23.3333 37.0717 23.3333 33.3333V32.6917C24.8883 33.105 26.5917 33.3333 28.3333 33.3333C34.875 33.3333 40 30.405 40 26.6667V6.66667C40 2.92833 34.875 0 28.3333 0ZM28.3333 1.66667C33.7533 1.66667 38.3333 3.95667 38.3333 6.66667C38.3333 9.37667 33.7533 11.6667 28.3333 11.6667C22.9133 11.6667 18.3333 9.37667 18.3333 6.66667C18.3333 3.95667 22.9133 1.66667 28.3333 1.66667ZM11.6667 15C17.0867 15 21.6667 17.29 21.6667 20C21.6667 22.71 17.0867 25 11.6667 25C6.24667 25 1.66667 22.71 1.66667 20C1.66667 17.29 6.24667 15 11.6667 15ZM1.66667 23.4667C3.68833 25.3967 7.365 26.6667 11.6667 26.6667C15.9683 26.6667 19.645 25.3967 21.6667 23.4667V26.6667C21.6667 29.3767 17.0867 31.6667 11.6667 31.6667C6.24667 31.6667 1.66667 29.3767 1.66667 26.6667V23.4667ZM11.6667 38.3333C6.24667 38.3333 1.66667 36.0433 1.66667 33.3333V30.1333C3.68833 32.0633 7.365 33.3333 11.6667 33.3333C15.9683 33.3333 19.645 32.0633 21.6667 30.1333V33.3333C21.6667 36.0433 17.0867 38.3333 11.6667 38.3333ZM28.3333 31.6667C26.5717 31.6667 24.8567 31.4183 23.3333 30.9633V26.0267C24.8867 26.44 26.5883 26.665 28.3333 26.665C32.635 26.665 36.3117 25.395 38.3333 23.465V26.665C38.3333 29.375 33.7533 31.6667 28.3333 31.6667ZM28.3333 25C26.565 25 24.8567 24.7483 23.3333 24.2933V20C23.3333 19.7783 23.3133 19.56 23.2767 19.345C24.84 19.7683 26.5483 20 28.3333 20C32.635 20 36.3117 18.73 38.3333 16.8V20C38.3333 22.71 33.7533 25 28.3333 25ZM28.3333 18.3333C26.1517 18.3333 24.1033 17.9667 22.3567 17.2933C21.4933 16.155 20.0967 15.1917 18.3333 14.5V10.135C20.355 12.065 24.0317 13.335 28.3333 13.335C32.635 13.335 36.3117 12.065 38.3333 10.135V13.335C38.3333 16.045 33.7533 18.335 28.3333 18.335V18.3333Z" fill="#91CE0F"/>
</g>
</g>
<defs>
<clipPath id="clip0_1119_10188">
<rect width="40" height="40" fill="white"/>
</clipPath>
<clipPath id="clip1_1119_10188">
<rect width="40" height="40" fill="white"/>
</clipPath>
</defs>
</svg>
