<svg width="30" height="30" viewBox="0 0 30 30" fill="none" xmlns="http://www.w3.org/2000/svg">
<path d="M26.875 7.5H5.625C4.1925 7.5 2.84875 6.79125 2.035 5.62625C2.8275 4.4925 4.14125 3.75 5.625 3.75H29.375C29.72 3.75 30 3.47 30 3.125C30 2.78 29.72 2.5 29.375 2.5H5.625C2.51875 2.5 0 5.01875 0 8.125V21.875C0 24.9813 2.51875 27.5 5.625 27.5H26.875C28.6012 27.5 30 26.1012 30 24.375V10.625C30 8.89875 28.6012 7.5 26.875 7.5ZM28.75 24.375C28.75 25.4088 27.9088 26.25 26.875 26.25H5.625C3.2125 26.25 1.25 24.2875 1.25 21.875V8.125C1.25 7.69 1.31375 7.27 1.4325 6.87375C2.49 8.05125 4.0125 8.75 5.625 8.75H26.875C27.9088 8.75 28.75 9.59125 28.75 10.625V24.375ZM26.25 17.5C26.25 18.19 25.69 18.75 25 18.75C24.31 18.75 23.75 18.19 23.75 17.5C23.75 16.81 24.31 16.25 25 16.25C25.69 16.25 26.25 16.81 26.25 17.5Z" fill="#91CE0F"/>
</svg>
