<svg width="40" height="40" viewBox="0 0 40 40" fill="none" xmlns="http://www.w3.org/2000/svg">
<g clip-path="url(#clip0_1119_5561)">
<path d="M28.8872 26.8264C29.0556 26.1798 28.9606 25.5081 28.6222 24.9331C28.2839 24.3564 27.7422 23.9464 27.0939 23.7798C26.4489 23.6098 25.7739 23.7064 25.1989 24.0448L24.8272 24.2631C24.1472 23.6964 23.3589 23.2531 22.5006 22.9531V22.5014C22.5006 21.1231 21.3789 20.0014 20.0006 20.0014C18.6222 20.0014 17.5006 21.1231 17.5006 22.5014V22.9531C16.6422 23.2531 15.8539 23.6964 15.1739 24.2631L14.8022 24.0448C14.2256 23.7064 13.5522 23.6098 12.9072 23.7798C12.2606 23.9481 11.7189 24.3581 11.3806 24.9314C11.0406 25.5081 10.9472 26.1798 11.1139 26.8264C11.2822 27.4748 11.6922 28.0164 12.2672 28.3531L12.6572 28.5831C12.5506 29.0831 12.5006 29.5431 12.5006 30.0014C12.5006 30.4598 12.5506 30.9198 12.6572 31.4181L12.2672 31.6481C11.6922 31.9864 11.2822 32.5281 11.1156 33.1748C10.9472 33.8231 11.0422 34.4948 11.3806 35.0698C11.7189 35.6464 12.2606 36.0564 12.9089 36.2231C13.5556 36.3964 14.2289 36.2981 14.8039 35.9581L15.1756 35.7398C15.8556 36.3064 16.6439 36.7498 17.5022 37.0498V37.5014C17.5022 38.8798 18.6239 40.0014 20.0022 40.0014C21.3806 40.0014 22.5022 38.8798 22.5022 37.5014V37.0498C23.3606 36.7498 24.1489 36.3064 24.8289 35.7398L25.2006 35.9581C25.7789 36.2981 26.4506 36.3964 27.0956 36.2231C27.7422 36.0548 28.2839 35.6448 28.6222 35.0714C28.9622 34.4948 29.0556 33.8231 28.8889 33.1748C28.7206 32.5281 28.3122 31.9864 27.7356 31.6464L27.3472 31.4181C27.4539 30.9198 27.5039 30.4598 27.5039 30.0014C27.5039 29.5431 27.4539 29.0831 27.3472 28.5831L27.7356 28.3548C28.3122 28.0164 28.7189 27.4748 28.8872 26.8264ZM25.5839 28.4081C25.7556 29.0098 25.8356 29.5164 25.8356 29.9998C25.8356 30.4831 25.7556 30.9898 25.5839 31.5914C25.4806 31.9564 25.6356 32.3464 25.9639 32.5381L26.8906 33.0798C27.0822 33.1931 27.2189 33.3748 27.2739 33.5914C27.3306 33.8064 27.2989 34.0314 27.1856 34.2231C27.0722 34.4148 26.8922 34.5514 26.6772 34.6064C26.4606 34.6631 26.2389 34.6331 26.0456 34.5181L25.1439 33.9881C24.8172 33.7931 24.3989 33.8464 24.1322 34.1164C23.4156 34.8364 22.4922 35.3548 21.4606 35.6214C21.0922 35.7181 20.8356 36.0498 20.8356 36.4281V37.4981C20.8356 37.9564 20.4622 38.3314 20.0022 38.3314C19.5422 38.3314 19.1689 37.9564 19.1689 37.4981V36.4281C19.1689 36.0481 18.9122 35.7164 18.5439 35.6214C17.5122 35.3548 16.5889 34.8348 15.8722 34.1164C15.7122 33.9548 15.4972 33.8731 15.2822 33.8731C15.1372 33.8731 14.9906 33.9098 14.8606 33.9881L13.9589 34.5181C13.7656 34.6298 13.5439 34.6631 13.3272 34.6064C13.1122 34.5514 12.9322 34.4148 12.8172 34.2214C12.7056 34.0314 12.6739 33.8064 12.7289 33.5914C12.7856 33.3748 12.9206 33.1948 13.1122 33.0814L14.0389 32.5381C14.3672 32.3464 14.5239 31.9548 14.4189 31.5914C14.2472 30.9898 14.1672 30.4831 14.1672 29.9998C14.1672 29.5164 14.2472 29.0098 14.4189 28.4081C14.5222 28.0431 14.3672 27.6548 14.0389 27.4631L13.1106 26.9164C12.9189 26.8048 12.7822 26.6231 12.7272 26.4081C12.6706 26.1931 12.7022 25.9681 12.8156 25.7764C12.9289 25.5848 13.1089 25.4481 13.3239 25.3931C13.5422 25.3381 13.7639 25.3681 13.9556 25.4814L14.8572 26.0114C15.1822 26.2048 15.6022 26.1531 15.8689 25.8831C16.5856 25.1631 17.5089 24.6448 18.5406 24.3781C18.9089 24.2814 19.1656 23.9498 19.1656 23.5714V22.5014C19.1656 22.0431 19.5389 21.6681 19.9989 21.6681C20.4589 21.6681 20.8322 22.0431 20.8322 22.5014V23.5714C20.8322 23.9514 21.0889 24.2831 21.4572 24.3781C22.4889 24.6448 23.4122 25.1648 24.1289 25.8831C24.3972 26.1531 24.8139 26.2048 25.1406 26.0114L26.0422 25.4814C26.2339 25.3698 26.4572 25.3364 26.6739 25.3931C26.8889 25.4481 27.0689 25.5848 27.1839 25.7781C27.2956 25.9681 27.3272 26.1931 27.2722 26.4081C27.2172 26.6231 27.0806 26.8031 26.8889 26.9181L25.9622 27.4631C25.6356 27.6548 25.4789 28.0448 25.5822 28.4081H25.5839ZM20.0022 26.6664C18.1639 26.6664 16.6689 28.1614 16.6689 29.9998C16.6689 31.8381 18.1639 33.3331 20.0022 33.3331C21.8406 33.3331 23.3356 31.8381 23.3356 29.9998C23.3356 28.1614 21.8406 26.6664 20.0022 26.6664ZM20.0022 31.6664C19.0839 31.6664 18.3356 30.9198 18.3356 29.9998C18.3356 29.0798 19.0839 28.3331 20.0022 28.3331C20.9206 28.3331 21.6689 29.0798 21.6689 29.9998C21.6689 30.9198 20.9206 31.6664 20.0022 31.6664ZM40.0022 20.8331C40.0022 25.7731 37.3889 29.6964 32.8306 31.6014C32.4072 31.7798 31.9172 31.5798 31.7406 31.1531C31.5639 30.7281 31.7639 30.2414 32.1889 30.0648C36.1539 28.4081 38.3372 25.1298 38.3372 20.8331C38.3372 15.9731 34.6239 11.3348 29.8856 10.2731C28.6589 9.99642 27.6406 9.20976 27.0922 8.11309C24.7372 3.41309 19.6456 0.904758 14.4289 1.87476C9.86557 2.72142 6.17557 6.35976 5.24891 10.9314C4.97057 12.2964 4.93057 13.6731 5.12557 15.0181C5.34224 16.5064 4.92724 17.8748 3.98391 18.7764C2.49224 20.1998 1.67224 22.1114 1.66891 24.1598C1.66891 27.7198 4.19224 30.8098 7.66891 31.5164C8.12057 31.6098 8.41057 32.0481 8.31891 32.4998C8.23891 32.8948 7.89224 33.1664 7.50391 33.1664C3.25391 32.3014 0.00390625 28.5081 0.00390625 24.1664C0.00557292 21.6498 1.01057 19.3114 2.83391 17.5714C3.38057 17.0481 3.61557 16.2048 3.47724 15.2581C3.25224 13.7198 3.29891 12.1531 3.61557 10.5981C4.67391 5.36976 8.89724 1.20642 14.1222 0.238091C20.0822 -0.883575 25.8906 1.99809 28.5806 7.36809C28.9039 8.01642 29.5122 8.48142 30.2472 8.64642C35.7172 9.87142 40.0022 15.2248 40.0022 20.8331Z" fill="white"/>
</g>
<defs>
<clipPath id="clip0_1119_5561">
<rect width="40" height="40" fill="white"/>
</clipPath>
</defs>
</svg>
