<svg width="40" height="40" viewBox="0 0 40 40" fill="none" xmlns="http://www.w3.org/2000/svg">
<g clip-path="url(#clip0_1040_7390)">
<path d="M39.1667 15C39.6267 15 40 14.6267 40 14.1667C40 13.7067 39.6267 13.3333 39.1667 13.3333H36.6667V10.8333C36.6667 10.5517 36.65 10.2733 36.62 10H39.1667C39.6267 10 40 9.62667 40 9.16667C40 8.70667 39.6267 8.33333 39.1667 8.33333H36.2383C35.4833 6.205 33.795 4.51667 31.6667 3.76167V0.833333C31.6667 0.373333 31.2933 0 30.8333 0C30.3733 0 30 0.373333 30 0.833333V3.38C29.7267 3.35 29.4483 3.33333 29.1667 3.33333H26.6667V0.833333C26.6667 0.373333 26.2933 0 25.8333 0C25.3733 0 25 0.373333 25 0.833333V3.33333H20.8333V0.833333C20.8333 0.373333 20.46 0 20 0C19.54 0 19.1667 0.373333 19.1667 0.833333V3.33333H15V0.833333C15 0.373333 14.6267 0 14.1667 0C13.7067 0 13.3333 0.373333 13.3333 0.833333V3.33333H10.8333C10.5517 3.33333 10.2733 3.35 10 3.38V0.833333C10 0.373333 9.62667 0 9.16667 0C8.70667 0 8.33333 0.373333 8.33333 0.833333V3.76167C6.205 4.51667 4.51667 6.205 3.76167 8.33333H0.833333C0.373333 8.33333 0 8.70667 0 9.16667C0 9.62667 0.373333 10 0.833333 10H3.38C3.35 10.2733 3.33333 10.5517 3.33333 10.8333V13.3333H0.833333C0.373333 13.3333 0 13.7067 0 14.1667C0 14.6267 0.373333 15 0.833333 15H3.33333V19.1667H0.833333C0.373333 19.1667 0 19.54 0 20C0 20.46 0.373333 20.8333 0.833333 20.8333H3.33333V25H0.833333C0.373333 25 0 25.3733 0 25.8333C0 26.2933 0.373333 26.6667 0.833333 26.6667H3.33333V29.1667C3.33333 29.4483 3.35 29.7267 3.38 30H0.833333C0.373333 30 0 30.3733 0 30.8333C0 31.2933 0.373333 31.6667 0.833333 31.6667H3.76167C4.51667 33.795 6.205 35.4833 8.33333 36.2383V39.1667C8.33333 39.6267 8.70667 40 9.16667 40C9.62667 40 10 39.6267 10 39.1667V36.62C10.2733 36.65 10.5517 36.6667 10.8333 36.6667H13.3333V39.1667C13.3333 39.6267 13.7067 40 14.1667 40C14.6267 40 15 39.6267 15 39.1667V36.6667H19.1667V39.1667C19.1667 39.6267 19.54 40 20 40C20.46 40 20.8333 39.6267 20.8333 39.1667V36.6667H25V39.1667C25 39.6267 25.3733 40 25.8333 40C26.2933 40 26.6667 39.6267 26.6667 39.1667V36.6667H29.1667C29.4483 36.6667 29.7267 36.65 30 36.62V39.1667C30 39.6267 30.3733 40 30.8333 40C31.2933 40 31.6667 39.6267 31.6667 39.1667V36.2383C33.795 35.4833 35.4833 33.795 36.2383 31.6667H39.1667C39.6267 31.6667 40 31.2933 40 30.8333C40 30.3733 39.6267 30 39.1667 30H36.62C36.65 29.7267 36.6667 29.4483 36.6667 29.1667V26.6667H39.1667C39.6267 26.6667 40 26.2933 40 25.8333C40 25.3733 39.6267 25 39.1667 25H36.6667V20.8333H39.1667C39.6267 20.8333 40 20.46 40 20C40 19.54 39.6267 19.1667 39.1667 19.1667H36.6667V15H39.1667ZM29.1667 35H10.8333C7.61667 35 5 32.3833 5 29.1667V10.8333C5 7.61667 7.61667 5 10.8333 5H29.1667C32.3833 5 35 7.61667 35 10.8333V29.1667C35 32.3833 32.3833 35 29.1667 35ZM28.3333 12.5V27.5C28.3333 27.96 27.96 28.3333 27.5 28.3333C27.04 28.3333 26.6667 27.96 26.6667 27.5V12.5C26.6667 12.04 27.04 11.6667 27.5 11.6667C27.96 11.6667 28.3333 12.04 28.3333 12.5ZM19.73 13.9533C19.3717 12.6 18.0267 11.66 16.635 11.6683C15.3317 11.7167 14.14 12.6767 13.805 13.94L10.03 27.2733C9.905 27.7167 10.1617 28.1767 10.605 28.3017C10.68 28.3233 10.7567 28.3333 10.8333 28.3333C11.1967 28.3333 11.53 28.0933 11.6333 27.7267L12.8733 23.3467C12.8733 23.3467 12.875 23.3467 12.8767 23.3467H20.5217L21.6933 27.7167C21.8133 28.16 22.27 28.4183 22.7133 28.3067C23.1583 28.1867 23.4217 27.73 23.3033 27.285L19.7283 13.955L19.73 13.9533ZM13.3467 21.68L15.4133 14.38C15.565 13.805 16.1183 13.3567 16.6967 13.335C17.3267 13.28 17.9567 13.7717 18.12 14.3833L20.0767 21.68H13.3467Z" fill="#18181B"/>
</g>
<defs>
<clipPath id="clip0_1040_7390">
<rect width="40" height="40" fill="white"/>
</clipPath>
</defs>
</svg>
