<svg width="40" height="40" viewBox="0 0 40 40" fill="none" xmlns="http://www.w3.org/2000/svg">
<path d="M20.0007 16.6667C17.244 16.6667 15.0007 18.91 15.0007 21.6667C15.0007 24.4233 17.244 26.6667 20.0007 26.6667C22.7573 26.6667 25.0007 24.4233 25.0007 21.6667C25.0007 18.91 22.7573 16.6667 20.0007 16.6667ZM20.0007 25C18.1623 25 16.6673 23.505 16.6673 21.6667C16.6673 19.8283 18.1623 18.3333 20.0007 18.3333C21.839 18.3333 23.334 19.8283 23.334 21.6667C23.334 23.505 21.839 25 20.0007 25ZM33.494 8.98167L27.6873 3.17333C25.639 1.12667 22.919 0 20.0257 0H10.834C6.69898 0 3.33398 3.365 3.33398 7.5V32.5C3.33398 36.635 6.69898 40 10.834 40H29.1673C33.3023 40 36.6673 36.635 36.6673 32.5V16.6417C36.6673 13.7467 35.539 11.0267 33.494 8.98167ZM32.3157 10.16C33.2323 11.0767 33.914 12.1583 34.369 13.3333H25.834C24.4557 13.3333 23.334 12.2117 23.334 10.8333V2.3C24.5073 2.755 25.5907 3.43667 26.5073 4.35167L32.3157 10.16ZM13.334 38.3333C13.334 34.6567 16.324 31.6667 20.0007 31.6667C23.6773 31.6667 26.6673 34.6567 26.6673 38.3333H13.334ZM35.0007 32.5C35.0007 35.7167 32.384 38.3333 29.1673 38.3333H28.334C28.334 33.7383 24.5956 30 20.0007 30C15.4057 30 11.6673 33.7383 11.6673 38.3333H10.834C7.61732 38.3333 5.00065 35.7167 5.00065 32.5V7.5C5.00065 4.28333 7.61732 1.66667 10.834 1.66667H20.0257C20.584 1.66667 21.1307 1.73 21.6673 1.82667V10.8333C21.6673 13.13 23.5357 15 25.834 15H34.8406C34.9373 15.5383 35.0007 16.085 35.0007 16.6417V32.5Z" fill="white"/>
</svg>
