<svg width="40" height="40" viewBox="0 0 40 40" fill="none" xmlns="http://www.w3.org/2000/svg">
<g clip-path="url(#clip0_1119_5541)">
<path d="M34.4583 25.2169C33.9083 25.0936 33.0267 24.8886 32.6333 23.9486C31.025 20.0653 26.98 17.7753 22.7917 18.3903C19.1617 18.9186 16.1367 21.6769 15.2667 25.2503C14.9333 26.6203 14.9117 28.0003 15.2 29.3536C15.2933 29.7919 15.09 30.2003 14.69 30.3703C12.395 31.3553 11.1967 33.8486 11.8417 36.2986C12.2817 37.9736 13.6467 39.3403 15.3233 39.7803C15.7267 39.8853 16.1317 39.9453 16.5233 39.9536C17.61 39.9853 31.2067 39.9836 32.6433 39.9536C33.1817 39.9419 33.7217 39.8753 34.2467 39.7536C36.99 39.1303 39.1683 36.9569 39.7967 34.2219C40.7133 30.2269 38.3683 26.2719 34.4583 25.2169ZM38.1733 33.8503C37.695 35.9353 35.9683 37.6553 33.8767 38.1319C33.46 38.2286 33.035 38.2819 32.6133 38.2903C29.8333 38.3453 18.7983 38.3536 16.57 38.2903C16.3033 38.2836 16.0267 38.2436 15.7483 38.1719C14.645 37.8819 13.745 36.9819 13.4567 35.8786C12.9667 34.0153 14.0383 32.4686 15.3517 31.9053C16.4867 31.4186 17.095 30.2253 16.8333 29.0069C16.5967 27.9019 16.615 26.7719 16.89 25.6469C17.6017 22.7269 20.0717 20.4736 23.0367 20.0419C23.4067 19.9886 23.775 19.9619 24.1417 19.9619C27.16 19.9619 29.9233 21.7553 31.0983 24.5903C31.8233 26.3269 33.3733 26.6786 34.0267 26.8269C37.0683 27.6486 38.89 30.7336 38.175 33.8519L38.1733 33.8503ZM11.6667 6.66526C11.6667 5.74526 12.4133 4.99859 13.3333 4.99859C14.2533 4.99859 15 5.74526 15 6.66526C15 7.58526 14.2533 8.33193 13.3333 8.33193C12.4133 8.33193 11.6667 7.58526 11.6667 6.66526ZM40 7.49859V22.4986C40 22.9586 39.6267 23.3319 39.1667 23.3319C38.7067 23.3319 38.3333 22.9586 38.3333 22.4986V7.49859C38.3333 4.28193 35.7167 1.66526 32.5 1.66526L7.49833 1.60026C4.285 1.60026 1.66667 4.21693 1.66667 7.43359V32.4986C1.66667 35.7153 4.28333 38.3319 7.5 38.3319H9.16667C9.62667 38.3319 10 38.7053 10 39.1653C10 39.6253 9.62667 39.9986 9.16667 39.9986H7.5C3.365 39.9986 0 36.6336 0 32.4986V7.43359C0 3.29859 3.365 -0.0664062 7.5 -0.0664062L32.5017 -0.00140624C36.635 -0.00140624 40 3.36359 40 7.49859ZM6.66667 4.99859C7.58667 4.99859 8.33333 5.74526 8.33333 6.66526C8.33333 7.58526 7.58667 8.33193 6.66667 8.33193C5.74667 8.33193 5 7.58526 5 6.66526C5 5.74526 5.74667 4.99859 6.66667 4.99859Z" fill="white"/>
</g>
<defs>
<clipPath id="clip0_1119_5541">
<rect width="40" height="40" fill="white"/>
</clipPath>
</defs>
</svg>
