<svg width="40" height="40" viewBox="0 0 40 40" fill="none" xmlns="http://www.w3.org/2000/svg">
<g clip-path="url(#clip0_1040_7372)">
<path d="M34.4583 25.2179C33.9083 25.0946 33.0267 24.8896 32.6333 23.9496C31.025 20.0662 26.98 17.7762 22.7917 18.3912C19.1617 18.9196 16.1367 21.6779 15.2667 25.2512C14.9333 26.6212 14.9117 28.0012 15.2 29.3546C15.2933 29.7929 15.09 30.2012 14.69 30.3712C12.395 31.3562 11.1967 33.8496 11.8417 36.2996C12.2817 37.9746 13.6467 39.3412 15.3233 39.7812C15.7267 39.8862 16.1317 39.9462 16.5233 39.9546C17.61 39.9862 31.2067 39.9846 32.6433 39.9546C33.1817 39.9429 33.7217 39.8762 34.2467 39.7546C36.99 39.1312 39.1683 36.9579 39.7967 34.2229C40.7133 30.2279 38.3683 26.2729 34.4583 25.2179ZM38.1733 33.8512C37.695 35.9362 35.9683 37.6562 33.8767 38.1329C33.46 38.2296 33.035 38.2829 32.6133 38.2912C29.8333 38.3462 18.7983 38.3546 16.57 38.2912C16.3033 38.2846 16.0267 38.2446 15.7483 38.1729C14.645 37.8829 13.745 36.9829 13.4567 35.8796C12.9667 34.0162 14.0383 32.4696 15.3517 31.9062C16.4867 31.4196 17.095 30.2262 16.8333 29.0079C16.5967 27.9029 16.615 26.7729 16.89 25.6479C17.6017 22.7279 20.0717 20.4746 23.0367 20.0429C23.4067 19.9896 23.775 19.9629 24.1417 19.9629C27.16 19.9629 29.9233 21.7562 31.0983 24.5912C31.8233 26.3279 33.3733 26.6796 34.0267 26.8279C37.0683 27.6496 38.89 30.7346 38.175 33.8529L38.1733 33.8512ZM11.6667 6.66624C11.6667 5.74624 12.4133 4.99957 13.3333 4.99957C14.2533 4.99957 15 5.74624 15 6.66624C15 7.58624 14.2533 8.3329 13.3333 8.3329C12.4133 8.3329 11.6667 7.58624 11.6667 6.66624ZM40 7.49957V22.4996C40 22.9596 39.6267 23.3329 39.1667 23.3329C38.7067 23.3329 38.3333 22.9596 38.3333 22.4996V7.49957C38.3333 4.2829 35.7167 1.66624 32.5 1.66624L7.49833 1.60124C4.285 1.60124 1.66667 4.2179 1.66667 7.43457V32.4996C1.66667 35.7162 4.28333 38.3329 7.5 38.3329H9.16667C9.62667 38.3329 10 38.7062 10 39.1662C10 39.6262 9.62667 39.9996 9.16667 39.9996H7.5C3.365 39.9996 0 36.6346 0 32.4996V7.43457C0 3.29957 3.365 -0.0654297 7.5 -0.0654297L32.5017 -0.000429682C36.635 -0.000429682 40 3.36457 40 7.49957ZM6.66667 4.99957C7.58667 4.99957 8.33333 5.74624 8.33333 6.66624C8.33333 7.58624 7.58667 8.3329 6.66667 8.3329C5.74667 8.3329 5 7.58624 5 6.66624C5 5.74624 5.74667 4.99957 6.66667 4.99957Z" fill="#18181B"/>
</g>
<defs>
<clipPath id="clip0_1040_7372">
<rect width="40" height="40" fill="white"/>
</clipPath>
</defs>
</svg>
