<svg width="82" height="82" viewBox="0 0 82 82" fill="none" xmlns="http://www.w3.org/2000/svg">
<g filter="url(#filter0_bi_1119_5890)">
<circle cx="41" cy="41" r="40" fill="url(#paint0_radial_1119_5890)" fill-opacity="0.6"/>
<circle cx="41" cy="41" r="40.5" stroke="url(#paint1_linear_1119_5890)" stroke-opacity="0.4"/>
</g>
<path d="M52.3181 40.2031L34.9707 29.8896C34.8247 29.802 34.6573 29.7539 34.4857 29.7502C34.3142 29.7465 34.1448 29.7874 33.9949 29.8686C33.845 29.9498 33.7201 30.0684 33.6331 30.2122C33.5461 30.356 33.5002 30.5197 33.5 30.6866V51.3134C33.5002 51.4803 33.5461 51.644 33.6331 51.7878C33.7201 51.9316 33.845 52.0502 33.9949 52.1314C34.1448 52.2126 34.3142 52.2535 34.4857 52.2498C34.6573 52.2461 34.8247 52.198 34.9707 52.1104L52.3181 41.7969C52.4606 41.7151 52.5786 41.5985 52.6606 41.4587C52.7426 41.319 52.7857 41.1609 52.7857 41C52.7857 40.8391 52.7426 40.681 52.6606 40.5413C52.5786 40.4015 52.4606 40.2849 52.3181 40.2031Z" fill="white"/>
<defs>
<filter id="filter0_bi_1119_5890" x="-34.4566" y="-34.4566" width="150.913" height="150.913" filterUnits="userSpaceOnUse" color-interpolation-filters="sRGB">
<feFlood flood-opacity="0" result="BackgroundImageFix"/>
<feGaussianBlur in="BackgroundImageFix" stdDeviation="17.2283"/>
<feComposite in2="SourceAlpha" operator="in" result="effect1_backgroundBlur_1119_5890"/>
<feBlend mode="normal" in="SourceGraphic" in2="effect1_backgroundBlur_1119_5890" result="shape"/>
<feColorMatrix in="SourceAlpha" type="matrix" values="0 0 0 0 0 0 0 0 0 0 0 0 0 0 0 0 0 0 127 0" result="hardAlpha"/>
<feOffset dx="-4.10197" dy="-4.10197"/>
<feGaussianBlur stdDeviation="102.549"/>
<feComposite in2="hardAlpha" operator="arithmetic" k2="-1" k3="1"/>
<feColorMatrix type="matrix" values="0 0 0 0 1 0 0 0 0 1 0 0 0 0 1 0 0 0 0.02 0"/>
<feBlend mode="normal" in2="shape" result="effect2_innerShadow_1119_5890"/>
</filter>
<radialGradient id="paint0_radial_1119_5890" cx="0" cy="0" r="1" gradientUnits="userSpaceOnUse" gradientTransform="translate(1 1) rotate(45) scale(113.137 78.6121)">
<stop stop-color="white" stop-opacity="0.4"/>
<stop offset="1" stop-color="white" stop-opacity="0"/>
</radialGradient>
<linearGradient id="paint1_linear_1119_5890" x1="1" y1="1" x2="18.0556" y2="90.005" gradientUnits="userSpaceOnUse">
<stop stop-color="white"/>
<stop offset="1" stop-color="#ECFFFE"/>
</linearGradient>
</defs>
</svg>
